<svg xmlns="http://www.w3.org/2000/svg" viewBox="0 0 820 400" font-family="system-ui, -apple-system, sans-serif">
  <defs>
    <linearGradient id="c1" x1="0" y1="0" x2="0" y2="1"><stop offset="0%" stop-color="#f97316"/><stop offset="100%" stop-color="#ef4444"/></linearGradient>
    <linearGradient id="c2" x1="0" y1="0" x2="0" y2="1"><stop offset="0%" stop-color="#06b6d4"/><stop offset="100%" stop-color="#3b82f6"/></linearGradient>
    <filter id="sh3"><feDropShadow dx="0" dy="2" stdDeviation="3" flood-opacity="0.08"/></filter>
  </defs>

  <rect width="820" height="400" rx="16" fill="#fafafa"/>

  <text x="410" y="36" text-anchor="middle" font-size="20" font-weight="700" fill="#1e293b">Practical Impact: MiniCPM4.1-8B on RTX 4090</text>
  <text x="410" y="56" text-anchor="middle" font-size="13" fill="#64748b">How many concurrent 4K-context conversations can you serve?</text>

  <!-- FP16 Section -->
  <text x="60" y="95" font-size="14" font-weight="700" fill="#dc2626">FP16 KV Cache</text>
  <text x="60" y="112" font-size="11" fill="#94a3b8">32 KB per token × 4096 tokens = 128 MB per session</text>

  <!-- FP16 user grid: 56 sessions = 8 rows × 7 cols -->
  <g transform="translate(60, 122)">
    <g fill="url(#c1)">
      <rect x="0" y="0" width="18" height="18" rx="4"/><rect x="22" y="0" width="18" height="18" rx="4"/><rect x="44" y="0" width="18" height="18" rx="4"/><rect x="66" y="0" width="18" height="18" rx="4"/><rect x="88" y="0" width="18" height="18" rx="4"/><rect x="110" y="0" width="18" height="18" rx="4"/><rect x="132" y="0" width="18" height="18" rx="4"/>
      <rect x="0" y="22" width="18" height="18" rx="4"/><rect x="22" y="22" width="18" height="18" rx="4"/><rect x="44" y="22" width="18" height="18" rx="4"/><rect x="66" y="22" width="18" height="18" rx="4"/><rect x="88" y="22" width="18" height="18" rx="4"/><rect x="110" y="22" width="18" height="18" rx="4"/><rect x="132" y="22" width="18" height="18" rx="4"/>
      <rect x="0" y="44" width="18" height="18" rx="4"/><rect x="22" y="44" width="18" height="18" rx="4"/><rect x="44" y="44" width="18" height="18" rx="4"/><rect x="66" y="44" width="18" height="18" rx="4"/><rect x="88" y="44" width="18" height="18" rx="4"/><rect x="110" y="44" width="18" height="18" rx="4"/><rect x="132" y="44" width="18" height="18" rx="4"/>
      <rect x="0" y="66" width="18" height="18" rx="4"/><rect x="22" y="66" width="18" height="18" rx="4"/><rect x="44" y="66" width="18" height="18" rx="4"/><rect x="66" y="66" width="18" height="18" rx="4"/><rect x="88" y="66" width="18" height="18" rx="4"/><rect x="110" y="66" width="18" height="18" rx="4"/><rect x="132" y="66" width="18" height="18" rx="4"/>
      <rect x="0" y="88" width="18" height="18" rx="4"/><rect x="22" y="88" width="18" height="18" rx="4"/><rect x="44" y="88" width="18" height="18" rx="4"/><rect x="66" y="88" width="18" height="18" rx="4"/><rect x="88" y="88" width="18" height="18" rx="4"/><rect x="110" y="88" width="18" height="18" rx="4"/><rect x="132" y="88" width="18" height="18" rx="4"/>
      <rect x="0" y="110" width="18" height="18" rx="4"/><rect x="22" y="110" width="18" height="18" rx="4"/><rect x="44" y="110" width="18" height="18" rx="4"/><rect x="66" y="110" width="18" height="18" rx="4"/><rect x="88" y="110" width="18" height="18" rx="4"/><rect x="110" y="110" width="18" height="18" rx="4"/><rect x="132" y="110" width="18" height="18" rx="4"/>
      <rect x="0" y="132" width="18" height="18" rx="4"/><rect x="22" y="132" width="18" height="18" rx="4"/><rect x="44" y="132" width="18" height="18" rx="4"/><rect x="66" y="132" width="18" height="18" rx="4"/><rect x="88" y="132" width="18" height="18" rx="4"/><rect x="110" y="132" width="18" height="18" rx="4"/><rect x="132" y="132" width="18" height="18" rx="4"/>
      <rect x="0" y="154" width="18" height="18" rx="4"/><rect x="22" y="154" width="18" height="18" rx="4"/><rect x="44" y="154" width="18" height="18" rx="4"/><rect x="66" y="154" width="18" height="18" rx="4"/><rect x="88" y="154" width="18" height="18" rx="4"/><rect x="110" y="154" width="18" height="18" rx="4"/><rect x="132" y="154" width="18" height="18" rx="4"/>
    </g>
    <text x="170" y="90" font-size="36" font-weight="800" fill="#dc2626">56</text>
    <text x="170" y="112" font-size="12" fill="#94a3b8">sessions</text>
  </g>

  <!-- Divider -->
  <line x1="410" y1="85" x2="410" y2="370" stroke="#e2e8f0" stroke-width="2" stroke-dasharray="6,4"/>

  <!-- TQ-3bit Section -->
  <text x="440" y="95" font-size="14" font-weight="700" fill="#0284c7">TQ-3bit KV Cache</text>
  <text x="440" y="112" font-size="11" fill="#94a3b8">19.3 KB per token × 4096 tokens = 77 MB per session</text>

  <!-- TQ user grid: 93 sessions ≈ 10 rows × 9 + 3 -->
  <g transform="translate(440, 122)">
    <g fill="url(#c2)">
      <!-- Row 1-10, 10 per row = 100, but we show ~93 -->
      <rect x="0" y="0" width="16" height="16" rx="3"/><rect x="20" y="0" width="16" height="16" rx="3"/><rect x="40" y="0" width="16" height="16" rx="3"/><rect x="60" y="0" width="16" height="16" rx="3"/><rect x="80" y="0" width="16" height="16" rx="3"/><rect x="100" y="0" width="16" height="16" rx="3"/><rect x="120" y="0" width="16" height="16" rx="3"/><rect x="140" y="0" width="16" height="16" rx="3"/><rect x="160" y="0" width="16" height="16" rx="3"/><rect x="180" y="0" width="16" height="16" rx="3"/>
      <rect x="0" y="20" width="16" height="16" rx="3"/><rect x="20" y="20" width="16" height="16" rx="3"/><rect x="40" y="20" width="16" height="16" rx="3"/><rect x="60" y="20" width="16" height="16" rx="3"/><rect x="80" y="20" width="16" height="16" rx="3"/><rect x="100" y="20" width="16" height="16" rx="3"/><rect x="120" y="20" width="16" height="16" rx="3"/><rect x="140" y="20" width="16" height="16" rx="3"/><rect x="160" y="20" width="16" height="16" rx="3"/><rect x="180" y="20" width="16" height="16" rx="3"/>
      <rect x="0" y="40" width="16" height="16" rx="3"/><rect x="20" y="40" width="16" height="16" rx="3"/><rect x="40" y="40" width="16" height="16" rx="3"/><rect x="60" y="40" width="16" height="16" rx="3"/><rect x="80" y="40" width="16" height="16" rx="3"/><rect x="100" y="40" width="16" height="16" rx="3"/><rect x="120" y="40" width="16" height="16" rx="3"/><rect x="140" y="40" width="16" height="16" rx="3"/><rect x="160" y="40" width="16" height="16" rx="3"/><rect x="180" y="40" width="16" height="16" rx="3"/>
      <rect x="0" y="60" width="16" height="16" rx="3"/><rect x="20" y="60" width="16" height="16" rx="3"/><rect x="40" y="60" width="16" height="16" rx="3"/><rect x="60" y="60" width="16" height="16" rx="3"/><rect x="80" y="60" width="16" height="16" rx="3"/><rect x="100" y="60" width="16" height="16" rx="3"/><rect x="120" y="60" width="16" height="16" rx="3"/><rect x="140" y="60" width="16" height="16" rx="3"/><rect x="160" y="60" width="16" height="16" rx="3"/><rect x="180" y="60" width="16" height="16" rx="3"/>
      <rect x="0" y="80" width="16" height="16" rx="3"/><rect x="20" y="80" width="16" height="16" rx="3"/><rect x="40" y="80" width="16" height="16" rx="3"/><rect x="60" y="80" width="16" height="16" rx="3"/><rect x="80" y="80" width="16" height="16" rx="3"/><rect x="100" y="80" width="16" height="16" rx="3"/><rect x="120" y="80" width="16" height="16" rx="3"/><rect x="140" y="80" width="16" height="16" rx="3"/><rect x="160" y="80" width="16" height="16" rx="3"/><rect x="180" y="80" width="16" height="16" rx="3"/>
      <rect x="0" y="100" width="16" height="16" rx="3"/><rect x="20" y="100" width="16" height="16" rx="3"/><rect x="40" y="100" width="16" height="16" rx="3"/><rect x="60" y="100" width="16" height="16" rx="3"/><rect x="80" y="100" width="16" height="16" rx="3"/><rect x="100" y="100" width="16" height="16" rx="3"/><rect x="120" y="100" width="16" height="16" rx="3"/><rect x="140" y="100" width="16" height="16" rx="3"/><rect x="160" y="100" width="16" height="16" rx="3"/><rect x="180" y="100" width="16" height="16" rx="3"/>
      <rect x="0" y="120" width="16" height="16" rx="3"/><rect x="20" y="120" width="16" height="16" rx="3"/><rect x="40" y="120" width="16" height="16" rx="3"/><rect x="60" y="120" width="16" height="16" rx="3"/><rect x="80" y="120" width="16" height="16" rx="3"/><rect x="100" y="120" width="16" height="16" rx="3"/><rect x="120" y="120" width="16" height="16" rx="3"/><rect x="140" y="120" width="16" height="16" rx="3"/><rect x="160" y="120" width="16" height="16" rx="3"/><rect x="180" y="120" width="16" height="16" rx="3"/>
      <rect x="0" y="140" width="16" height="16" rx="3"/><rect x="20" y="140" width="16" height="16" rx="3"/><rect x="40" y="140" width="16" height="16" rx="3"/><rect x="60" y="140" width="16" height="16" rx="3"/><rect x="80" y="140" width="16" height="16" rx="3"/><rect x="100" y="140" width="16" height="16" rx="3"/><rect x="120" y="140" width="16" height="16" rx="3"/><rect x="140" y="140" width="16" height="16" rx="3"/><rect x="160" y="140" width="16" height="16" rx="3"/><rect x="180" y="140" width="16" height="16" rx="3"/>
      <rect x="0" y="160" width="16" height="16" rx="3"/><rect x="20" y="160" width="16" height="16" rx="3"/><rect x="40" y="160" width="16" height="16" rx="3"/><rect x="60" y="160" width="16" height="16" rx="3"/><rect x="80" y="160" width="16" height="16" rx="3"/><rect x="100" y="160" width="16" height="16" rx="3"/><rect x="120" y="160" width="16" height="16" rx="3"/><rect x="140" y="160" width="16" height="16" rx="3"/><rect x="160" y="160" width="16" height="16" rx="3"/><rect x="180" y="160" width="16" height="16" rx="3"/>
      <rect x="0" y="180" width="16" height="16" rx="3"/><rect x="20" y="180" width="16" height="16" rx="3"/><rect x="40" y="180" width="16" height="16" rx="3"/>
    </g>
    <text x="220" y="100" font-size="36" font-weight="800" fill="#0284c7">93</text>
    <text x="220" y="122" font-size="12" fill="#94a3b8">sessions</text>
    <text x="220" y="142" font-size="16" font-weight="800" fill="#059669">+66%</text>
  </g>

  <!-- Bottom insight box -->
  <rect x="60" y="340" width="700" height="48" rx="10" fill="#ecfdf5" stroke="#6ee7b7" stroke-width="1.5"/>
  <text x="410" y="362" text-anchor="middle" font-size="12" font-weight="600" fill="#047857">Each square = one concurrent user conversation with 4K context (2K dialogue + 2K RAG docs)</text>
  <text x="410" y="378" text-anchor="middle" font-size="11" fill="#059669">Accuracy preserved: 99.5% cosine similarity on attention scores</text>
</svg>
